<svg id="Layer_1" enable-background="new 0 0 490.667 490.667" viewBox="0 0 490.667 490.667" xmlns="http://www.w3.org/2000/svg"><g><g><g><path d="m117.333 64h-42.666c-6.4 0-10.667 4.267-10.667 10.667v64c0 6.4 4.267 10.667 10.667 10.667h42.667c6.4 0 10.667-4.267 10.667-10.667v-64c-.001-6.4-4.268-10.667-10.668-10.667zm-10.666 64h-21.334v-42.667h21.333v42.667z"/><path d="m185.6 192c-4.267-2.133-8.533 0-10.667 2.133l-21.333 21.334c-4.267 4.267-4.267 10.667 0 14.934s10.667 4.267 14.934 0l2.133-2.133v38.4c0 6.4 4.267 10.667 10.667 10.667s10.667-4.267 10.667-10.667v-64c-.001-4.268-2.134-8.535-6.401-10.668z"/><path d="m437.333 0h-384c-29.866 0-53.333 23.467-53.333 53.333v298.667c0 29.867 23.467 53.333 53.333 53.333h160v21.333h-74.667c-29.867 0-53.333 23.467-53.333 53.333 0 6.4 4.267 10.667 10.667 10.667h298.667c6.4 0 10.667-4.267 10.667-10.667 0-2.133 0-2.133 0-4.267-2.134-27.732-25.601-49.065-53.334-49.065h-74.667v-21.333h160c29.867 0 53.333-23.467 53.333-53.333v-298.668c.001-29.866-23.466-53.333-53.333-53.333zm32 320h-448v-266.667c0-17.066 14.934-32 32-32h384c17.066 0 32 14.934 32 32z"/><path d="m117.333 192h-42.666c-6.4 0-10.667 4.267-10.667 10.667v64c0 6.4 4.267 10.667 10.667 10.667h42.667c6.4 0 10.667-4.267 10.667-10.667v-64c-.001-6.4-4.268-10.667-10.668-10.667zm-10.666 64h-21.334v-42.667h21.333v42.667z"/><path d="m334.934 64c-4.267-2.133-8.533 0-10.667 2.133l-21.333 21.333c-4.267 4.267-4.267 10.667 0 14.934s10.667 4.267 14.934 0l2.133-2.133v38.4c0 6.4 4.267 10.667 10.667 10.667s10.667-4.267 10.667-10.667v-64c-.002-4.267-2.135-8.534-6.401-10.667z"/><path d="m213.333 74.667c0-6.4-4.267-10.667-10.667-10.667h-42.666c-6.4 0-10.667 4.267-10.667 10.667v64c0 6.4 4.267 10.667 10.667 10.667h42.667c6.4 0 10.667-4.267 10.667-10.667v-64zm-21.333 53.333h-21.333v-42.667h21.333z"/><path d="m270.934 64c-4.267-2.133-8.533 0-10.667 2.133l-21.333 21.333c-4.267 4.267-4.267 10.667 0 14.934s10.667 4.266 14.933 0l2.133-2.133v38.4c0 6.4 4.267 10.667 10.667 10.667s10.667-4.267 10.667-10.667v-64c-.001-4.267-2.134-8.534-6.4-10.667z"/><path d="m416 192h-42.667c-6.4 0-10.667 4.267-10.667 10.667v64c0 6.4 4.267 10.667 10.667 10.667h42.667c6.4 0 10.667-4.267 10.667-10.667v-64c0-6.4-4.267-10.667-10.667-10.667zm-10.667 64h-21.333v-42.667h21.333z"/><path d="m334.934 192c-4.267-2.133-8.533 0-10.667 2.133l-21.333 21.333c-4.267 4.267-4.267 10.667 0 14.934s10.667 4.267 14.934 0l2.133-2.133v38.4c0 6.4 4.267 10.667 10.667 10.667s10.667-4.267 10.667-10.667v-64c-.002-4.267-2.135-8.534-6.401-10.667z"/><path d="m266.667 192h-42.667c-6.4 0-10.667 4.267-10.667 10.667v64c0 6.4 4.267 10.667 10.667 10.667h42.667c6.4 0 10.667-4.267 10.667-10.667v-64c-.001-6.4-4.268-10.667-10.667-10.667zm-10.667 64h-21.333v-42.667h21.333z"/><path d="m416 64h-42.667c-6.4 0-10.667 4.267-10.667 10.667v64c0 6.4 4.267 10.667 10.667 10.667h42.667c6.4 0 10.667-4.267 10.667-10.667v-64c0-6.4-4.267-10.667-10.667-10.667zm-10.667 64h-21.333v-42.667h21.333z"/></g></g></g><g/><g/><g/><g/><g/><g/><g/><g/><g/><g/><g/><g/><g/><g/><g/></svg>